<svg xmlns="http://www.w3.org/2000/svg" viewBox="0 0 1000 1000"><path d="M993.631 291.4v166.703c0 11.28-4.125 21.046-12.377 29.298-8.252 8.252-18.018 12.378-29.298 12.378H910.28c-11.28 0-21.047-4.126-29.298-12.378-8.252-8.252-12.378-18.018-12.378-29.298V291.4c0-46.01-16.281-85.297-48.844-117.86-32.563-32.562-71.85-48.844-117.86-48.844-46.01 0-85.296 16.282-117.859 48.844-32.562 32.563-48.844 71.85-48.844 117.86v125.027h62.514c17.365 0 32.118 6.085 44.26 18.254 12.141 12.17 18.226 26.923 18.254 44.26v375.083c0 17.365-6.085 32.118-18.254 44.26-12.17 12.14-26.923 18.226-44.26 18.253H58.013c-17.365 0-27.622-6.084-39.763-18.254C6.108 886.114.024 871.361-.004 854.023V478.942c0-17.365 6.084-32.118 18.254-44.26 12.17-12.141 26.922-18.226 44.26-18.254h347.66V291.4c0-80.324 28.548-149.02 85.643-206.087C552.91 28.245 621.605-.303 701.901-.331c80.295-.028 148.99 28.52 206.087 85.644 57.095 57.123 85.643 125.819 85.643 206.087z"/></svg>